<?xml version="1.0" encoding="UTF-8"?>
<svg version="1.1" xmlns="http://www.w3.org/2000/svg" width="565" height="148">
<path d="M0 0 C186.45 0 372.9 0 565 0 C565 3.63 565 7.26 565 11 C545.86 11 526.72 11 507 11 C507.33 15.29 507.66 19.58 508 24 C509.11117188 23.7834375 510.22234375 23.566875 511.3671875 23.34375 C524.08808233 20.93183284 537.47554713 18.48854875 549.375 25.1875 C555.26417982 29.26005782 557.15857672 34.56462186 558.59857178 41.35665894 C559.36116946 46.37824353 559.24232137 51.4047098 559.1953125 56.47265625 C559.19106766 58.21814003 559.19106766 58.21814003 559.18673706 59.99888611 C559.17561231 63.68686549 559.15052183 67.37459499 559.125 71.0625 C559.11496025 73.57486626 559.10583615 76.08723637 559.09765625 78.59960938 C559.07569823 84.73315705 559.04229793 90.86656066 559 97 C556.86886638 96.26761042 554.74520249 95.51345686 552.625 94.75 C551.44164062 94.33234375 550.25828125 93.9146875 549.0390625 93.484375 C546 92 546 92 544.5859375 89.828125 C544.39257812 89.22484375 544.19921875 88.6215625 544 88 C543.12601563 88.48919922 543.12601563 88.48919922 542.234375 88.98828125 C529.57073513 95.73824024 516.11872876 98.23657888 502 94.75 C493.95453357 92.19756401 489.12406497 87.52153724 484 81 C482.03513884 77.07027767 482.66506261 72.2932883 483 68 C486.17505572 59.14326563 493.09549192 53.61282907 501 49 C513.09201873 43.56023006 526.14883538 41.8979248 538.87890625 46.1484375 C540.98499048 46.99397408 542.9884415 47.95088786 545 49 C545 45.27357272 544.95145095 43.07245843 542.43359375 40.234375 C536.71107476 35.62052407 531.46007781 34.84877912 524.24609375 35.1640625 C514.60140515 36.33131712 506.11843013 38.6371747 497 42 C495.00228695 42.67348868 493.00302326 43.34247261 491 44 C490.70703125 38.04296875 490.70703125 38.04296875 491 36 C492.485 34.515 492.485 34.515 494 33 C494.33 25.74 494.66 18.48 495 11 C480.15 11 465.3 11 450 11 C450.33 17.27 450.66 23.54 451 30 C452.9490625 28.2984375 452.9490625 28.2984375 454.9375 26.5625 C455.66839844 25.92441406 456.39929688 25.28632813 457.15234375 24.62890625 C458.12139353 23.77458541 459.08651175 22.91348825 460 22 C468.84912959 21.41005803 468.84912959 21.41005803 473 25 C475.02215001 27.50640172 476.91765581 29.95188475 478 33 C476.91836978 36.33666535 474.69558524 38.67157195 472.375 41.25 C471.74335938 41.95640625 471.11171875 42.6628125 470.4609375 43.390625 C469.73777344 44.18726562 469.73777344 44.18726562 469 45 C466.48180168 42.48180168 465.98392171 40.13318499 464.9765625 36.77734375 C464.14143257 34.81603425 464.14143257 34.81603425 462.0234375 34.19140625 C459.93196107 33.81341196 459.93196107 33.81341196 458 35 C458.37904208 38.29075996 458.37904208 38.29075996 460 41 C460.52053994 47.43667656 460.95368271 53.59663364 457 59 C449.05064416 66.94935584 439.58628593 66.49723779 428.98046875 67.12304688 C421.25335336 67.66384751 414.15307373 68.43812759 408 73.4375 C405.52780966 76.40076361 405.52780966 76.40076361 405 80 C406.26362699 82.51707157 406.26362699 82.51707157 409 84 C417.17339855 83.88382987 423.69034832 80.87596852 431.0625 77.5625 C453.74054015 67.48193691 453.74054015 67.48193691 465.26953125 70.6171875 C472.53651418 73.75741339 476.25962207 79.86833453 479.25 86.9375 C479.85935943 88.61577742 480.44420758 90.30322989 481 92 C481.226875 92.68449219 481.45375 93.36898437 481.6875 94.07421875 C483.04930041 99.03911609 483.26075238 104.06151236 483.375 109.1875 C483.40110352 109.86506348 483.42720703 110.54262695 483.45410156 111.24072266 C483.4715278 116.31300164 482.25815874 119.15804149 479 123 C474.36843929 126.57617229 470.35805797 126.61296459 464.66796875 126.484375 C457.97268574 125.60022687 452.0848021 122.78138632 446 120 C431.41677064 113.56314398 419.56813206 110.96143375 403.9375 116.0625 C388.88523569 121.9096615 377.42929386 132.09658783 369.27734375 145.9453125 C368.64505859 146.96238281 368.64505859 146.96238281 368 148 C367.67 148 367.34 148 367 148 C366.02467846 134.56223649 369.67973554 125.10622844 377.828125 114.4765625 C385.55593638 105.66463369 396.04796213 99.70357537 407.796875 98.6640625 C423.87835871 98.50515456 434.03496624 104.47275263 447.29516602 112.94018555 C451.72145148 115.69179735 455.88933745 115.53796448 461 115 C466.34997081 113.32585947 469.91752391 110.74227091 473 106 C473.4125 105.38125 473.825 104.7625 474.25 104.125 C475.78472937 99.77660011 475.40160114 96.07798201 473.8125 91.8125 C470.95911655 87.38483602 468.59495441 85.45570126 463.5 84 C453.68679479 83.27039366 443.04165029 89.04748989 434.09228516 92.625 C433.35929199 92.91761719 432.62629883 93.21023437 431.87109375 93.51171875 C431.22068115 93.77428467 430.57026855 94.03685059 429.90014648 94.30737305 C424.02151319 96.45020777 418.0290483 97.1799277 412.1875 94.625 C405.42052764 90.83871785 397.80019943 85.05923367 394.75 77.75 C393.52816901 71.64084507 393.52816901 71.64084507 395 68 C398.81927222 63.79082528 402.63152389 60.91463134 408 59 C407.57847656 58.38253906 407.15695312 57.76507813 406.72265625 57.12890625 C402.4951044 50.59360845 400.05665776 45.43756704 401.4140625 37.61328125 C402.92580302 32.10362455 405.09005335 29.1497771 410 26 C416.00618177 22.99690912 422.02309968 22.33690349 428.62841797 21.64575195 C432.11111807 21.56595695 432.11111807 21.56595695 435 20 C435.33 17.03 435.66 14.06 436 11 C373.96 11 311.92 11 248 11 C248.33 15.29 248.66 19.58 249 24 C250.02738281 23.7834375 251.05476562 23.566875 252.11328125 23.34375 C265.24725401 20.66289309 278.29457877 18.87497901 290.71484375 25.43359375 C295.87333231 28.96958335 297.67765146 34.10029112 299 40 C300.01411103 46.53103869 300.13072139 52.89806815 300.09765625 59.5 C300.09553383 61.11442993 300.09553383 61.11442993 300.09336853 62.76147461 C300.0878038 66.17434555 300.07525787 69.58714913 300.0625 73 C300.05748044 75.3242178 300.05291833 77.64843663 300.04882812 79.97265625 C300.03784593 85.6484602 300.0211432 91.32422529 300 97 C297.87453041 96.18872921 295.74963805 95.37594602 293.625 94.5625 C292.44164062 94.11003906 291.25828125 93.65757813 290.0390625 93.19140625 C287 92 287 92 285 91 C285 90.01 285 89.02 285 88 C284.16597656 88.40992187 283.33195312 88.81984375 282.47265625 89.2421875 C268.80567624 95.78605651 255.49173228 98.7529171 240.53515625 94.0390625 C233.10132284 90.99222169 228.13492513 86.84846975 224 80 C221.94059089 73.82177268 222.8986011 68.89688703 225.69140625 63.1953125 C231.36472236 53.67768965 241.9415466 47.76581085 252.4375 45.0625 C263.31041321 42.9685538 273.92928465 42.96464233 284 48 C284.4389624 44.22492337 284.30530225 42.4632172 282.1875 39.25 C274.6104886 33.90152136 265.95388864 34.72150598 257.13671875 36.08984375 C249.54474051 37.6134229 242.26441336 40.37163103 235 43 C234.01 43.33 233.02 43.66 232 44 C231.8046875 37.9453125 231.8046875 37.9453125 232 36 C232.99 35.01 232.99 35.01 234 34 C234.33 26.41 234.66 18.82 235 11 C210.91 11 186.82 11 162 11 C162 15.29 162 19.58 162 24 C163.17175781 23.7834375 164.34351563 23.566875 165.55078125 23.34375 C194.04471578 18.22789708 194.04471578 18.22789708 206.27734375 26.59375 C212.57067988 31.73116725 213.55828591 38.68947972 214.33984375 46.31640625 C215.65485505 63.13741405 215.08861625 80.14109979 215 97 C213.57217463 96.53482356 212.14526912 96.06682317 210.71875 95.59765625 C209.92404297 95.33734619 209.12933594 95.07703613 208.31054688 94.80883789 C200.54524496 92.09048991 200.54524496 92.09048991 199 89 C198.28714844 89.28746094 197.57429687 89.57492188 196.83984375 89.87109375 C194.09047806 90.96403279 191.33452276 92.02839789 188.5625 93.0625 C187.65628906 93.40410156 186.75007812 93.74570313 185.81640625 94.09765625 C174.26769373 97.79772919 160.94599972 97.2563166 150 92 C144.63116723 88.20857132 139.93245595 84.45820771 138 78 C137.23574 72.47244514 137.40663913 67.48933336 140.61328125 62.71875 C149.00822893 52.31374443 159.69400616 45.82855375 173 44 C182.6019079 43.40841326 191.78358273 43.52238849 200 49 C199.82927214 44.64643959 199.45414721 42.52401601 196.5625 39.1875 C189.13808033 33.91179473 180.20971846 34.65858317 171.60546875 36.01953125 C162.82774583 37.69565 154.37446819 40.94385656 146 44 C145.70703125 38.04296875 145.70703125 38.04296875 146 36 C146.73246948 35.28589966 146.73246948 35.28589966 147.47973633 34.55737305 C149.59661872 32.38881792 149.42531004 30.88427261 149.51171875 27.89453125 C149.56138794 26.56578979 149.56138794 26.56578979 149.61206055 25.21020508 C149.63695557 24.0889624 149.66185059 22.96771973 149.6875 21.8125 C149.8421875 16.4603125 149.8421875 16.4603125 150 11 C135.81 11 121.62 11 107 11 C107 14.96 107 18.92 107 23 C107.99 23.20625 108.98 23.4125 110 23.625 C116.61979441 25.51828806 122.25101566 30.30709785 126 36 C131.34960593 47.09547897 131.35665972 58.23140527 127.37890625 69.83203125 C122.24537689 81.62606046 111.79764252 91.80903729 100 97 C95.03196984 96.82347101 92.234946 93.95764927 88.8125 90.6875 C88.27947266 90.20087891 87.74644531 89.71425781 87.19726562 89.21289062 C84.50450659 86.69626174 82.34224015 84.4667675 81 81 C82.01578125 80.72027344 83.0315625 80.44054687 84.078125 80.15234375 C98.2990233 76.07981427 111.17555648 70.22874829 119.68359375 57.4765625 C122.29793077 52.55819552 122.68794276 47.49371429 122 42 C119.90773973 38.15024111 117.30970231 36.04623548 113.171875 34.5078125 C103.4162434 32.2268195 94.65300598 34.5199661 85.96875 39.0625 C76.45795421 45.06931839 73.26635769 55.83960418 70 66 C63.54646385 63.94235079 57.2638737 61.57616518 51 59 C51.98673089 50.35759843 54.79446468 43.57789855 59 36 C48.84360801 34.19829384 40.38486489 34.59377738 31.3125 39.9375 C25.96551237 44.07267034 22.83880689 50.95964007 21.48828125 57.46484375 C21.08219734 65.43249013 25.19346923 72.8754679 30 79 C32.9887 82.2222603 36.11103083 85.29979114 39.25 88.375 C40.09046875 89.20644531 40.9309375 90.03789063 41.796875 90.89453125 C43.86010502 92.93431547 45.92787123 94.96926286 48 97 C44.32926011 98.22357996 43.06165794 97.35179033 39.70678711 95.70092773 C39.01979736 95.34587158 38.33280762 94.99081543 37.625 94.625 C36.91545166 94.262854 36.20590332 93.90070801 35.47485352 93.52758789 C21.4888715 86.21456406 9.51734826 77.82806081 3 63 C0.80869917 54.19519484 1.82991951 45.80658307 6.18359375 37.83203125 C12.78981119 28.15663631 22.73739097 23.25786587 34 21 C44.83668425 19.66434768 54.79555759 22.59907923 63.98828125 28.36328125 C69.73960952 30.18360457 75.98431691 27.06581039 81.3125 24.9375 C88.76716247 22 88.76716247 22 91 22 C91 18.37 91 14.74 91 11 C60.97 11 30.94 11 0 11 C0 7.37 0 3.74 0 0 Z M416 39 C413.32738445 42.37050923 411.75012959 45.74327542 411.4375 50.0625 C412.15985736 55.11900149 413.34744637 56.51347153 417 60 C420.71582877 62.25983056 423.28006609 62.26399548 427.5 61.66015625 C435.84844988 59.4556437 441.9861734 53.80776455 447 47 C448.96383797 43.07232406 448.47510337 38.28226501 448 34 C446.1031157 31.34436198 444.85514945 30.42757473 442 29 C431.97694306 27.68231364 422.72268613 31.56403152 416 39 Z M146.42578125 72.75390625 C144.70142815 75.10811645 144.70142815 75.10811645 144.5625 78.875 C145.76576362 82.19188977 145.76576362 82.19188977 148.8125 83.9375 C160.22842129 87.63496439 173.90082395 84.36612617 184.4765625 79.3515625 C193.99144352 74.30234057 193.99144352 74.30234057 200 66 C195.11416004 59.48554673 187.33623817 57.76231974 179.5390625 56.6484375 C166.04637944 56.11262698 154.90312453 62.67962857 146.42578125 72.75390625 Z M234.08203125 70.3125 C230.89908844 74.33664787 230.89908844 74.33664787 230.23828125 79.1640625 C231.29485234 81.71066974 232.65769442 82.59461665 235 84 C246.20523796 87.42580524 259.69177312 84.25324488 269.9609375 79.12890625 C275.65005694 76.05773055 280.6611914 72.86715061 285 68 C285.40216123 65.85460279 285.40216123 65.85460279 284 64 C277.74194335 58.56537186 268.6560549 56.30309979 260.4453125 56.65625 C249.74884304 58.15990705 241.02986865 61.93547406 234.08203125 70.3125 Z M492 72 C490.72588734 74.31780069 489.87133249 76.48851223 489 79 C492.89377136 83.2182523 494.92423851 84.75581741 500.55859375 85.203125 C515.75566821 85.45056719 529.54636112 80.93654347 541.57421875 71.5234375 C543.72584525 69.22443932 544 67.07487075 544 64 C537.78853034 58.75108254 528.33262094 56.23455756 520.24609375 56.6796875 C508.75167239 58.31889194 499.33193949 62.82537731 492 72 Z " fill="#000000" transform="translate(0,0)"/>
<path d="M0 0 C4.19742905 4.0808338 6.46209321 7.85986952 6.75 13.6875 C6.44178306 19.37024978 4.27836138 23.18362588 0.30859375 27.10546875 C-7.62036082 34.1875 -7.62036082 34.1875 -12.75 34.1875 C-15.00390625 31.921875 -15.00390625 31.921875 -17.3125 28.9375 C-18.07691406 27.96296875 -18.84132813 26.9884375 -19.62890625 25.984375 C-21.34313778 23.72398867 -23.05481012 21.46219569 -24.75 19.1875 C-24.08613281 18.95675781 -23.42226563 18.72601563 -22.73828125 18.48828125 C-17.39010898 16.51297091 -13.30504744 14.85349977 -9.75 10.1875 C-8.41436389 7.02048577 -8.41436389 7.02048577 -7.75 4.1875 C-9.90005085 1.82244406 -11.68707318 0.18088167 -14.75 -0.8125 C-22.77054314 -0.8125 -28.87913814 2.68421999 -34.765625 8.01171875 C-40.66324985 14.33243407 -45.77863227 22.75788037 -45.95532227 31.56713867 C-45.97526749 32.44782516 -45.99521271 33.32851166 -46.01576233 34.23588562 C-46.04083107 35.65632927 -46.04083107 35.65632927 -46.06640625 37.10546875 C-46.08718735 38.07784988 -46.10796844 39.05023102 -46.12937927 40.05207825 C-46.19478748 43.15964665 -46.25371929 46.26729985 -46.3125 49.375 C-46.35569351 51.48112858 -46.39930807 53.58724856 -46.44335938 55.69335938 C-46.55045999 60.85798591 -46.65175219 66.02269778 -46.75 71.1875 C-50.96213456 69.82899437 -54.69141361 68.28031075 -58.5625 66.125 C-59.51769531 65.59777344 -60.47289062 65.07054688 -61.45703125 64.52734375 C-63.75 63.1875 -63.75 63.1875 -64.75 62.1875 C-64.84409479 60.16255769 -64.86743122 58.1343013 -64.86352539 56.10717773 C-64.86344986 54.80590439 -64.86337433 53.50463104 -64.86329651 52.16392517 C-64.85818909 50.73298098 -64.85297308 49.30203718 -64.84765625 47.87109375 C-64.84579203 46.4152074 -64.84436815 44.95932043 -64.84336853 43.50343323 C-64.83954365 39.66470621 -64.82971364 35.82601681 -64.81866455 31.98730469 C-64.80844978 28.07292184 -64.80387077 24.15853294 -64.79882812 20.24414062 C-64.78809133 12.55857459 -64.77049479 4.87304735 -64.75 -2.8125 C-58.81 -2.8125 -52.87 -2.8125 -46.75 -2.8125 C-46.42 -1.4925 -46.09 -0.1725 -45.75 1.1875 C-44.92757813 0.77757812 -44.10515625 0.36765625 -43.2578125 -0.0546875 C-27.9906301 -7.42383559 -14.68587527 -9.67932688 0 0 Z " fill="#000000" transform="translate(379.75,27.8125)"/>
<path d="" fill="#000000" transform="translate(0,0)"/>
</svg>
